<?xml version="1.0" encoding="utf-8"?>
<!-- Generator: Adobe Illustrator 26.0.2, SVG Export Plug-In . SVG Version: 6.00 Build 0)  -->
<svg version="1.1" id="레이어_1" xmlns="http://www.w3.org/2000/svg" xmlns:xlink="http://www.w3.org/1999/xlink" x="0px"
	 y="0px" viewBox="0 0 219.3 23.2" style="enable-background:new 0 0 219.3 23.2;" xml:space="preserve">
<style type="text/css">
	.st0{fill-rule:evenodd;clip-rule:evenodd;fill:#FFFFFF;}
</style>
<g id="Group-15" transform="translate(22.000000, 22.000000)">
	<path id="Fill-1" class="st0" d="M9.3-18h3.2c2.7,0,4,1.2,4,3.5s-1.3,3.4-4,3.4H9.3V-18z M12.6-21.6H5.5V0.8h3.8v-8.4h3.2l0,0
		l5.6,8.4h4.3l-6-9.2c2.5-1.1,4-3.4,4-6.2C20.4-18.8,17.3-21.6,12.6-21.6L12.6-21.6z"/>
	<path id="Fill-3" class="st0" d="M40.1-2.4c-4.4,0-7.7-3.4-7.7-8c0-4.5,3.3-8,7.7-8s7.7,3.4,7.7,8C47.9-5.8,44.5-2.4,40.1-2.4
		 M40.1-22c-6.5,0-11.7,5.1-11.7,11.6S33.5,1.2,40.1,1.2s11.7-5.1,11.7-11.6C51.8-16.9,46.7-22,40.1-22"/>
	<polygon id="Fill-5" class="st0" points="71.8,-5.5 78.4,-13.9 78.4,0.8 82.2,0.8 82.2,-21.6 80,-21.6 71.2,-10.7 62.4,-21.6 
		60.3,-21.6 60.3,0.8 64.1,0.8 64.1,-13.9 70.7,-5.5 	"/>
	<polygon id="Fill-7" class="st0" points="122.9,0.8 122.9,-18 129.3,-18 129.3,-21.6 112.7,-21.6 112.7,-18 119.1,-18 119.1,0.8 	
		"/>
	<g id="Clip-10">
	</g>
	<polygon id="Fill-9" class="st0" points="138.2,0.8 141.9,0.8 141.9,-21.6 138.2,-21.6 	"/>
	<path id="Fill-11" class="st0" d="M162-22c-6.6,0-11.5,5-11.5,11.6c0,3.2,1.2,6.1,3.3,8.3s5.1,3.3,8.3,3.3c4,0,7.2-1.5,9.5-4.5
		l0.1-0.1l0.5-0.6l-3.1-2.2l-0.4,0.6l-0.1,0.1c-1.5,2-3.7,3.1-6.4,3.1c-4.5,0-7.7-3.4-7.7-8c0-4.5,3.2-8,7.5-8c2.5,0,4.5,1,6,2.8
		l0.1,0.1l0.4,0.6l3-2.2l-0.5-0.5l-0.1-0.1C168.8-20.5,165.7-22,162-22"/>
	<path id="Fill-12" class="st0" d="M99.5-14.5l2.8,6.9h-5.6C96.9-8,99.5-14.5,99.5-14.5L99.5-14.5z M105.5,0.8h4.2l-9.2-22.4h-2
		L89.3,0.8h4.2l1.9-5.1h8.1L105.5,0.8z"/>
	<path id="Fill-13" class="st0" d="M-11.8-6.4c-1.1,0-2.1-0.5-2.8-1.2c0.2-0.4,2.8-6.9,2.8-6.9L-9-7.6C-9.7-6.9-10.7-6.4-11.8-6.4
		L-11.8-6.4z M-1.6,0.8l-9.2-22.4h-2L-22,0.8h4.2l1.9-5.1c1.1,0.8,2.5,1.2,4,1.2s2.9-0.5,4-1.2L-6,0.8H-1.6z"/>
	<path id="Fill-14" class="st0" d="M187.1-6.4c-1.2,0-2.1-0.5-2.8-1.2c0.2-0.4,2.8-6.9,2.8-6.9l2.8,6.9
		C189.2-6.9,188.2-6.4,187.1-6.4L187.1-6.4z M197.3,0.8L188-21.6h-2l-9.2,22.4h4.2l1.9-5.1c1.1,0.8,2.5,1.2,4,1.2s2.9-0.5,4-1.2
		l1.9,5.1H197.3z"/>
</g>
</svg>
